# xmcd
#
# Track frame offsets: 
#        150
#        12600
#        23885
#        39140
#        50480
#        63827
#        80337
#        92145
#        106865
#        120802
#
# Disc length: 1791 seconds
#
# Revision: 2
# Processed by: cddbd v1.4PL0 Copyright (c) Steve Scherf et al.
# Submitted via: ExactAudioCopy v0.90b4
#
DISCID=6c06fd0a
DTITLE=Tracy Byrd - Tracy Bryd
DYEAR=1993
DGENRE=
TTITLE0=That's The Thing About A Memory
TTITLE1=Back In The Swing Of Things
TTITLE2=Someone To Give My Love To
TTITLE3=Holdin' Heaven
TTITLE4=Why
TTITLE5=An Out Of Control Raging Fire
TTITLE6=Hat Trick
TTITLE7=Why Don't That Telephone Ring
TTITLE8=Edge Of A Memory
TTITLE9=Talk To Me Texas
EXTD=
EXTT0=Tracy Byrd
EXTT1=Tracy Byrd
EXTT2=Tracy Byrd
EXTT3=Tracy Byrd
EXTT4=Tracy Byrd
EXTT5=Tracy Byrd, Dawn Sears
EXTT6=Tracy Byrd
EXTT7=Tracy Byrd
EXTT8=Tracy Byrd
EXTT9=Tracy Byrd
PLAYORDER=
